<?xml version="1.0" encoding="UTF-8" standalone="no"?>
<svg
   xmlns:svg="http://www.w3.org/2000/svg"
   xmlns="http://www.w3.org/2000/svg"
   xmlns:xlink="http://www.w3.org/1999/xlink"
   version="1.0"
   width="270"
   height="260"
   id="Fire tetrahedron">
  <defs
     id="defs3">
    <linearGradient
       id="linearGradient2361">
      <stop
         style="stop-color:#ff0000;stop-opacity:0"
         offset="0"
         id="stop2363" />
      <stop
         style="stop-color:#c20000;stop-opacity:0.83333331"
         offset="1"
         id="stop2365" />
    </linearGradient>
    <linearGradient
       id="linearGradient2353">
      <stop
         style="stop-color:#ffff00;stop-opacity:1"
         offset="0"
         id="stop2355" />
      <stop
         style="stop-color:#ffff00;stop-opacity:0"
         offset="1"
         id="stop2357" />
    </linearGradient>
    <linearGradient
       id="linearGradient9911">
      <stop
         style="stop-color:#e55137;stop-opacity:1"
         offset="0"
         id="stop9913" />
      <stop
         style="stop-color:#ac2c16;stop-opacity:1"
         offset="1"
         id="stop9915" />
    </linearGradient>
    <linearGradient
       id="linearGradient8385">
      <stop
         style="stop-color:#7796bf;stop-opacity:1"
         offset="0"
         id="stop8387" />
      <stop
         style="stop-color:#2c70cb;stop-opacity:1"
         offset="1"
         id="stop8389" />
    </linearGradient>
    <linearGradient
       id="linearGradient6857">
      <stop
         style="stop-color:#a16521;stop-opacity:1"
         offset="0"
         id="stop6859" />
      <stop
         style="stop-color:#68411a;stop-opacity:1"
         offset="1"
         id="stop6861" />
    </linearGradient>
    <linearGradient
       id="linearGradient6081">
      <stop
         style="stop-color:#00b531;stop-opacity:1"
         offset="0"
         id="stop6083" />
      <stop
         style="stop-color:#007731;stop-opacity:1"
         offset="1"
         id="stop6085" />
    </linearGradient>
    <path
       d="M 284.12572,532.21731 L 154.95134,532.21731 L 180.36807,517.54302 L 258.709,517.54302 L 284.12572,532.21731 z "
       style="fill-opacity:1;stroke:none"
       id="bar" />
    <linearGradient
       x1="357.19016"
       y1="778.10101"
       x2="357.19016"
       y2="881.02728"
       id="linearGradient6087"
       gradientUnits="userSpaceOnUse"
       gradientTransform="translate(8.80784,-14.1341)" />
    <linearGradient
       x1="330.7616"
       y1="818.79077"
       x2="332.85712"
       y2="777.55865"
       id="linearGradient6093"
       xlink:href="#linearGradient6081"
       gradientUnits="userSpaceOnUse"
       gradientTransform="translate(8.91467,-14.02728)" />
    <linearGradient
       x1="396.47589"
       y1="811.84436"
       x2="372.90442"
       y2="772.55865"
       id="linearGradient6095"
       gradientUnits="userSpaceOnUse"
       gradientTransform="matrix(1,0,0,0.981014,8.093553,0.932058)" />
    <linearGradient
       x1="387.5"
       y1="773.36938"
       x2="406.42856"
       y2="716.29077"
       id="linearGradient6863"
       gradientUnits="userSpaceOnUse"
       gradientTransform="translate(20.54921,-8.799779)" />
    <linearGradient
       x1="403.55792"
       y1="751.2265"
       x2="421.3765"
       y2="681.93329"
       id="linearGradient7623"
       gradientUnits="userSpaceOnUse"
       gradientTransform="translate(19.8991,-8.799779)" />
    <linearGradient
       x1="262.91168"
       y1="721.29077"
       x2="330.71429"
       y2="718.78778"
       id="linearGradient8391"
       gradientUnits="userSpaceOnUse"
       gradientTransform="translate(12.09355,-6.848391)" />
    <linearGradient
       x1="272.14288"
       y1="730.21936"
       x2="255.00002"
       y2="659.50507"
       id="linearGradient8393"
       gradientUnits="userSpaceOnUse"
       gradientTransform="matrix(1.027498,0,0,1.027498,4.843286,-26.39799)" />
    <linearGradient
       x1="355.71475"
       y1="746.53387"
       x2="358.17847"
       y2="676.58569"
       id="linearGradient9917"
       gradientUnits="userSpaceOnUse"
       gradientTransform="matrix(1,0,0,1.024392,10.04494,-24.73175)" />
    <linearGradient
       x1="349.14484"
       y1="648.72833"
       x2="393.80945"
       y2="705.15686"
       id="linearGradient7878"
       gradientUnits="userSpaceOnUse"
       gradientTransform="matrix(1,0,0,0.860169,274.0166,119.3555)" />
    <linearGradient
       x1="350.7616"
       y1="806.84436"
       x2="342.19016"
       y2="744.70148"
       id="linearGradient7880"
       gradientUnits="userSpaceOnUse"
       gradientTransform="matrix(0.896539,0,0,0.91456,289.5602,33.13992)" />
    <linearGradient
       x1="399.39853"
       y1="823.77063"
       x2="390.92743"
       y2="798.39893"
       id="linearGradient7882"
       gradientUnits="userSpaceOnUse"
       gradientTransform="matrix(0.903765,0,0,0.885906,287.8926,52.49252)" />
    <linearGradient
       x1="292.15585"
       y1="813.02307"
       x2="355.13361"
       y2="806.14618"
       id="linearGradient7884"
       gradientUnits="userSpaceOnUse"
       gradientTransform="matrix(0.906559,0,0,0.877767,287.7046,59.22911)" />
    <linearGradient
       x1="272.14288"
       y1="730.21936"
       x2="255.00002"
       y2="659.50507"
       id="linearGradient7886"
       gradientUnits="userSpaceOnUse"
       gradientTransform="matrix(1.027498,0,0,1.027498,285.7809,-20.24508)" />
    <linearGradient
       x1="384.98743"
       y1="771.22729"
       x2="406.42856"
       y2="716.29077"
       id="linearGradient7888"
       gradientUnits="userSpaceOnUse"
       gradientTransform="matrix(0.99805,-6.242574e-2,6.242574e-2,0.99805,178.9397,23.5567)" />
    <linearGradient
       x1="262.91168"
       y1="721.29077"
       x2="330.71429"
       y2="718.78778"
       id="linearGradient7890"
       xlink:href="#linearGradient8385"
       gradientUnits="userSpaceOnUse"
       gradientTransform="translate(317.289,25.54715)" />
    <linearGradient
       x1="403.55792"
       y1="751.2265"
       x2="424.66147"
       y2="649.08368"
       id="linearGradient7892"
       xlink:href="#linearGradient6857"
       gradientUnits="userSpaceOnUse"
       gradientTransform="matrix(0.99805,-6.242574e-2,6.242574e-2,0.99805,178.2907,23.59729)" />
    <linearGradient
       x1="262.91168"
       y1="721.29077"
       x2="330.71429"
       y2="718.78778"
       id="linearGradient7896"
       xlink:href="#linearGradient8385"
       gradientUnits="userSpaceOnUse"
       gradientTransform="translate(291.4675,1.486609)" />
    <linearGradient
       x1="349.14484"
       y1="648.72833"
       x2="393.80945"
       y2="705.15686"
       id="linearGradient7904"
       xlink:href="#linearGradient9911"
       gradientUnits="userSpaceOnUse"
       gradientTransform="matrix(1,0,0,0.860169,250.3585,99.47714)" />
    <linearGradient
       x1="272.14288"
       y1="730.21936"
       x2="255.00002"
       y2="659.50507"
       id="linearGradient4858"
       xlink:href="#linearGradient8385"
       gradientUnits="userSpaceOnUse"
       gradientTransform="matrix(1.027498,0,0,1.027498,4.843286,-26.39799)" />
    <linearGradient
       x1="262.91168"
       y1="721.29077"
       x2="330.71429"
       y2="718.78778"
       id="linearGradient4860"
       xlink:href="#linearGradient8385"
       gradientUnits="userSpaceOnUse"
       gradientTransform="translate(12.09355,-6.848391)" />
    <linearGradient
       x1="262.91168"
       y1="721.29077"
       x2="330.71429"
       y2="718.78778"
       id="linearGradient6096"
       xlink:href="#linearGradient8385"
       gradientUnits="userSpaceOnUse"
       gradientTransform="matrix(0.998365,5.715849e-2,-5.715849e-2,0.998365,53.15479,-21.00868)" />
    <linearGradient
       x1="272.14288"
       y1="730.21936"
       x2="255.00002"
       y2="659.50507"
       id="linearGradient6098"
       xlink:href="#linearGradient8385"
       gradientUnits="userSpaceOnUse"
       gradientTransform="matrix(1.025818,5.873024e-2,-5.873024e-2,1.025818,47.03381,-40.94073)" />
    <linearGradient
       x1="262.91168"
       y1="721.29077"
       x2="330.71429"
       y2="718.78778"
       id="linearGradient7130"
       xlink:href="#linearGradient8385"
       gradientUnits="userSpaceOnUse"
       gradientTransform="matrix(0.998365,5.715849e-2,-5.715849e-2,0.998365,53.97603,-19.26)" />
    <linearGradient
       x1="264.7612"
       y1="756.26025"
       x2="280.37924"
       y2="697.28003"
       id="linearGradient7132"
       xlink:href="#linearGradient8385"
       gradientUnits="userSpaceOnUse"
       gradientTransform="matrix(1.025818,5.873024e-2,-5.873024e-2,1.025818,47.85505,-39.19205)" />
    <linearGradient
       x1="355.71475"
       y1="746.53387"
       x2="358.17847"
       y2="676.58569"
       id="linearGradient7265"
       xlink:href="#linearGradient9911"
       gradientUnits="userSpaceOnUse"
       gradientTransform="matrix(1,0,0,0.959063,10.04494,23.16463)" />
    <linearGradient
       x1="97.670235"
       y1="114.04171"
       x2="97.196449"
       y2="148.54079"
       id="linearGradient1475"
       xlink:href="#linearGradient2353"
       gradientUnits="userSpaceOnUse"
       gradientTransform="matrix(3.466706,0,0,1.92818,19.79265,359.0047)" />
    <radialGradient
       cx="438.06387"
       cy="732.89209"
       r="106.76066"
       fx="438.06387"
       fy="732.89209"
       id="radialGradient2359"
       xlink:href="#linearGradient2361"
       gradientUnits="userSpaceOnUse"
       gradientTransform="matrix(1.840136,3.575074e-3,-1.783926e-3,0.917882,-675.9474,-550.7776)" />
    <radialGradient
       cx="381.20657"
       cy="755.88708"
       r="106.76066"
       fx="381.20657"
       fy="755.88708"
       id="radialGradient3112"
       xlink:href="#linearGradient2353"
       gradientUnits="userSpaceOnUse"
       gradientTransform="matrix(1.727775,2.056568e-15,-5.892436e-7,0.630158,-529.3956,-456.0513)" />
    <linearGradient
       x1="403.55792"
       y1="751.2265"
       x2="421.3765"
       y2="681.93329"
       id="linearGradient4865"
       xlink:href="#linearGradient6857"
       gradientUnits="userSpaceOnUse"
       gradientTransform="translate(19.8991,-8.799779)" />
    <linearGradient
       x1="262.91168"
       y1="721.29077"
       x2="330.71429"
       y2="718.78778"
       id="linearGradient4868"
       xlink:href="#linearGradient8385"
       gradientUnits="userSpaceOnUse"
       gradientTransform="matrix(0.998365,5.715849e-2,-5.715849e-2,0.998365,53.97603,-19.26)" />
    <linearGradient
       x1="387.5"
       y1="773.36938"
       x2="406.42856"
       y2="716.29077"
       id="linearGradient4871"
       xlink:href="#linearGradient6857"
       gradientUnits="userSpaceOnUse"
       gradientTransform="translate(20.54921,-8.799779)" />
    <linearGradient
       x1="264.7612"
       y1="756.26025"
       x2="280.37924"
       y2="697.28003"
       id="linearGradient4875"
       xlink:href="#linearGradient8385"
       gradientUnits="userSpaceOnUse"
       gradientTransform="matrix(1.025818,5.873024e-2,-5.873024e-2,1.025818,47.85505,-39.19205)" />
    <linearGradient
       x1="330.7616"
       y1="818.79077"
       x2="332.85712"
       y2="777.55865"
       id="linearGradient4878"
       xlink:href="#linearGradient6081"
       gradientUnits="userSpaceOnUse"
       gradientTransform="translate(8.91467,-14.02728)" />
    <linearGradient
       x1="396.47589"
       y1="811.84436"
       x2="372.90442"
       y2="772.55865"
       id="linearGradient4881"
       xlink:href="#linearGradient6081"
       gradientUnits="userSpaceOnUse"
       gradientTransform="matrix(1,0,0,0.981014,8.093553,0.932058)" />
    <linearGradient
       x1="357.19016"
       y1="778.10101"
       x2="357.19016"
       y2="881.02728"
       id="linearGradient4884"
       xlink:href="#linearGradient6081"
       gradientUnits="userSpaceOnUse"
       gradientTransform="translate(8.80784,-14.1341)" />
    <linearGradient
       x1="355.71475"
       y1="746.53387"
       x2="358.17847"
       y2="676.58569"
       id="linearGradient4888"
       xlink:href="#linearGradient9911"
       gradientUnits="userSpaceOnUse"
       gradientTransform="matrix(1,0,0,0.959063,-227.3284,-549.5834)" />
    <linearGradient
       x1="355.71475"
       y1="746.53387"
       x2="358.17847"
       y2="676.58569"
       id="linearGradient3112"
       xlink:href="#linearGradient9911"
       gradientUnits="userSpaceOnUse"
       gradientTransform="matrix(1,0,0,0.959063,-223.5316,-546.4194)" />
    <linearGradient
       x1="264.7612"
       y1="756.26025"
       x2="280.37924"
       y2="697.28003"
       id="linearGradient3114"
       xlink:href="#linearGradient8385"
       gradientUnits="userSpaceOnUse"
       gradientTransform="matrix(1.025818,5.873024e-2,-5.873024e-2,1.025818,47.85505,-39.19205)" />
    <linearGradient
       x1="262.91168"
       y1="721.29077"
       x2="330.71429"
       y2="718.78778"
       id="linearGradient3116"
       xlink:href="#linearGradient8385"
       gradientUnits="userSpaceOnUse"
       gradientTransform="matrix(0.998365,5.715849e-2,-5.715849e-2,0.998365,53.97603,-19.26)" />
    <linearGradient
       x1="387.5"
       y1="773.36938"
       x2="406.42856"
       y2="716.29077"
       id="linearGradient3122"
       xlink:href="#linearGradient6857"
       gradientUnits="userSpaceOnUse"
       gradientTransform="translate(20.54921,-8.799779)" />
    <linearGradient
       x1="403.55792"
       y1="751.2265"
       x2="421.3765"
       y2="681.93329"
       id="linearGradient3124"
       xlink:href="#linearGradient6857"
       gradientUnits="userSpaceOnUse"
       gradientTransform="translate(19.8991,-8.799779)" />
    <linearGradient
       x1="357.19016"
       y1="778.10101"
       x2="357.19016"
       y2="881.02728"
       id="linearGradient3130"
       xlink:href="#linearGradient6081"
       gradientUnits="userSpaceOnUse"
       gradientTransform="translate(8.80784,-14.1341)" />
    <linearGradient
       x1="396.47589"
       y1="811.84436"
       x2="372.90442"
       y2="772.55865"
       id="linearGradient3132"
       xlink:href="#linearGradient6081"
       gradientUnits="userSpaceOnUse"
       gradientTransform="matrix(1,0,0,0.981014,8.093553,0.932058)" />
    <linearGradient
       x1="330.7616"
       y1="818.79077"
       x2="332.85712"
       y2="777.55865"
       id="linearGradient3134"
       xlink:href="#linearGradient6081"
       gradientUnits="userSpaceOnUse"
       gradientTransform="translate(8.91467,-14.02728)" />
    <linearGradient
       x1="264.7612"
       y1="756.26025"
       x2="280.37924"
       y2="697.28003"
       id="linearGradient3141"
       xlink:href="#linearGradient8385"
       gradientUnits="userSpaceOnUse"
       gradientTransform="matrix(1.025818,5.873024e-2,-5.873024e-2,1.025818,47.85505,-39.19205)" />
    <linearGradient
       x1="262.91168"
       y1="721.29077"
       x2="330.71429"
       y2="718.78778"
       id="linearGradient3143"
       xlink:href="#linearGradient8385"
       gradientUnits="userSpaceOnUse"
       gradientTransform="matrix(0.998365,5.715849e-2,-5.715849e-2,0.998365,53.97603,-19.26)" />
    <linearGradient
       x1="262.91168"
       y1="721.29077"
       x2="330.71429"
       y2="718.78778"
       id="linearGradient3146"
       xlink:href="#linearGradient8385"
       gradientUnits="userSpaceOnUse"
       gradientTransform="matrix(0.998365,5.715849e-2,-5.715849e-2,0.998365,-180.2333,-588.844)" />
    <linearGradient
       x1="264.7612"
       y1="756.26025"
       x2="280.37924"
       y2="697.28003"
       id="linearGradient3149"
       xlink:href="#linearGradient8385"
       gradientUnits="userSpaceOnUse"
       gradientTransform="matrix(1.025818,5.873024e-2,-5.873024e-2,1.025818,-185.7214,-608.7761)" />
    <linearGradient
       x1="387.5"
       y1="773.36938"
       x2="406.42856"
       y2="716.29077"
       id="linearGradient3151"
       xlink:href="#linearGradient6857"
       gradientUnits="userSpaceOnUse"
       gradientTransform="translate(20.54921,-8.799779)" />
    <linearGradient
       x1="403.55792"
       y1="751.2265"
       x2="421.3765"
       y2="681.93329"
       id="linearGradient3153"
       xlink:href="#linearGradient6857"
       gradientUnits="userSpaceOnUse"
       gradientTransform="translate(19.8991,-8.799779)" />
    <linearGradient
       x1="403.55792"
       y1="751.2265"
       x2="421.3765"
       y2="681.93329"
       id="linearGradient3156"
       xlink:href="#linearGradient6857"
       gradientUnits="userSpaceOnUse"
       gradientTransform="translate(-213.6774,-578.3838)" />
    <linearGradient
       x1="387.5"
       y1="773.36938"
       x2="406.42856"
       y2="716.29077"
       id="linearGradient3159"
       xlink:href="#linearGradient6857"
       gradientUnits="userSpaceOnUse"
       gradientTransform="translate(-212.3945,-578.3838)" />
    <linearGradient
       x1="357.19016"
       y1="778.10101"
       x2="357.19016"
       y2="881.02728"
       id="linearGradient3161"
       xlink:href="#linearGradient6081"
       gradientUnits="userSpaceOnUse"
       gradientTransform="translate(8.80784,-14.1341)" />
    <linearGradient
       x1="396.47589"
       y1="811.84436"
       x2="372.90442"
       y2="772.55865"
       id="linearGradient3163"
       xlink:href="#linearGradient6081"
       gradientUnits="userSpaceOnUse"
       gradientTransform="matrix(1,0,0,0.981014,8.093553,0.932058)" />
    <linearGradient
       x1="330.7616"
       y1="818.79077"
       x2="332.85712"
       y2="777.55865"
       id="linearGradient3165"
       xlink:href="#linearGradient6081"
       gradientUnits="userSpaceOnUse"
       gradientTransform="translate(8.91467,-14.02728)" />
    <linearGradient
       x1="330.7616"
       y1="818.79077"
       x2="332.85712"
       y2="777.55865"
       id="linearGradient3168"
       xlink:href="#linearGradient6081"
       gradientUnits="userSpaceOnUse"
       gradientTransform="translate(-224.6618,-583.6113)" />
    <linearGradient
       x1="396.47589"
       y1="811.84436"
       x2="372.90442"
       y2="772.55865"
       id="linearGradient3171"
       xlink:href="#linearGradient6081"
       gradientUnits="userSpaceOnUse"
       gradientTransform="matrix(1,0,0,0.981014,-225.4829,-568.6519)" />
    <linearGradient
       x1="357.19016"
       y1="778.10101"
       x2="357.19016"
       y2="881.02728"
       id="linearGradient3174"
       xlink:href="#linearGradient6081"
       gradientUnits="userSpaceOnUse"
       gradientTransform="translate(-224.7687,-583.7181)" />
    <radialGradient
       cx="381.20657"
       cy="755.88708"
       r="106.76066"
       fx="381.20657"
       fy="755.88708"
       id="radialGradient3177"
       xlink:href="#linearGradient2353"
       gradientUnits="userSpaceOnUse"
       gradientTransform="matrix(1.727775,2.056568e-15,-5.892436e-7,0.630158,-525.5988,-452.8873)" />
    <radialGradient
       cx="438.06387"
       cy="732.89209"
       r="106.76066"
       fx="438.06387"
       fy="732.89209"
       id="radialGradient3180"
       xlink:href="#linearGradient2361"
       gradientUnits="userSpaceOnUse"
       gradientTransform="matrix(1.840136,3.575074e-3,-1.783926e-3,0.917882,-672.1506,-546.9808)" />
  </defs>
  <path
     d="M 121.68223,150.64173 L 124.15455,141.98861 C 91.65806,142.62724 40.89365,123.07823 40.89365,123.07823 C 37.03615,118.15815 32.304,117.73486 30.00463,102.12449 C 35.66895,109.09858 41.28442,106.69972 41.28442,106.69972 C 35.0241,94.541607 38.67329,74.653407 41.91658,73.031767 C 42.26094,81.989907 50.93361,82.886597 50.93361,82.886597 C 55.97859,81.419487 56.71985,62.475557 50.2571,58.219617 C 54.77088,53.705847 64.91884,62.121227 64.91884,62.121227 C 64.91884,62.121227 62.85965,55.670677 73.94088,45.988437 C 73.06593,61.356197 82.59279,58.385777 86.04858,54.926157 C 89.45587,51.128897 93.66051,41.205377 90.92851,31.645387 C 100.85907,34.797947 109.28113,47.717537 109.28113,47.717537 C 111.61621,36.095937 109.05445,24.055527 133.1918,3.1440899 C 133.63973,10.31553 139.17173,28.081227 149.11081,37.989987 C 161.19728,50.039417 161.74821,41.125687 162.82266,27.397257 C 167.08612,30.131827 178.96758,45.045407 179.92292,55.112367 C 180.08345,56.803997 188.32357,44.561057 191.16174,46.854507 C 188.68696,53.242367 189.60271,65.077467 195.72674,65.756687 C 195.72674,65.756687 201.05393,66.461387 202.45013,59.441207 C 204.65142,56.329817 215.65957,79.262517 204.02225,89.831497 C 195.85029,97.253247 214.73176,82.669487 221.69448,82.337927 C 213.58674,96.599037 226.51393,130.86216 222.03398,122.26271 C 219.89096,104.28789 194.89156,149.73583 158.48615,149.18206 C 140.7179,148.91173 123.75535,151.02602 121.68223,150.64173 z "
     style="fill:url(#radialGradient3180);fill-opacity:1;stroke:none"
     id="fire:red" />
  <path
     d="M 124.13283,130.8373 L 125.83015,124.89668 C 103.5204,125.33516 68.66931,111.91421 68.66931,111.91421 C 66.0211,108.53635 62.77231,108.24587 61.19368,97.528843 C 65.08244,102.31674 68.9376,100.66985 68.9376,100.66985 C 64.63978,92.322953 67.14495,78.669233 69.37158,77.556013 C 69.60802,83.706023 75.56201,84.321593 75.56201,84.321593 C 79.02554,83.314253 76.90775,70.308893 72.47092,67.386943 C 75.56967,64.288193 85.16319,70.065483 85.16319,70.065483 C 85.16319,70.065483 83.74947,65.637093 91.35721,58.990033 C 95.35312,65.764593 99.66934,66.439203 99.66934,66.439203 C 102.00855,63.832273 100.95516,56.362903 103.01954,49.142983 C 109.8372,51.307323 115.1266,58.371143 115.1266,58.371143 C 116.72974,50.392603 122.82715,48.429343 130.03448,31.576033 C 130.34196,36.499513 136.1399,52.009493 142.96326,58.812113 C 142.96326,58.812113 145.39678,48.784743 152.37699,46.226563 C 153.11909,49.976703 163.46085,59.655803 164.11672,66.567043 C 164.22686,67.728403 169.51075,58.888023 169.51075,58.888023 C 172.68732,63.970053 170.76219,72.095123 174.96649,72.561453 C 174.96649,72.561453 178.62368,73.045203 179.58224,68.225613 C 181.09347,66.089603 188.6508,81.833473 180.66152,89.089503 C 175.0513,94.184573 188.01392,84.172533 192.79398,83.944833 C 187.22775,93.735433 196.10262,117.25806 193.02709,111.35435 C 191.5558,99.014113 174.39302,130.21533 149.39981,129.83513 C 137.20135,129.64956 125.55603,131.10109 124.13283,130.8373 z "
     style="fill:url(#radialGradient3177);fill-opacity:1;stroke:none"
     id="fire:yellow" />
  <path
     d="M 125.10786,48.215793 L 52.3769,156.72135 L 198.84899,154.78374 L 125.10786,48.215793 z "
     style="fill:url(#linearGradient3112);fill-opacity:1;fill-rule:evenodd;stroke:none;stroke-width:1px;stroke-linecap:butt;stroke-linejoin:miter;stroke-opacity:1"
     id="path1449" />
  <path
     d="M 106.99737,112.64659 C 106.99737,112.64659 109.6392,112.64659 109.6392,112.64659 C 109.6392,112.64659 110.17656,116.66369 110.17656,116.66369 C 110.17656,116.66369 113.97702,116.66369 113.97702,116.66369 C 113.97702,116.66369 113.53672,112.64659 113.53672,112.64659 C 113.53672,112.64659 116.17851,112.64659 116.17851,112.64659 C 116.17851,112.64659 117.16129,123.18706 117.16129,123.18706 C 117.16129,123.18706 114.69207,123.18706 114.69207,123.18706 C 114.69207,123.18706 114.20221,118.71815 114.20221,118.71815 C 114.20221,118.71815 110.4514,118.71815 110.4514,118.71815 C 110.4514,118.71815 111.04921,123.18706 111.04921,123.18706 C 111.04921,123.18706 108.58006,123.18706 108.58006,123.18706 C 108.58006,123.18706 106.99737,112.64659 106.99737,112.64659 M 118.77228,112.64659 C 118.77228,112.64659 125.90176,112.64659 125.90176,112.64659 C 125.90176,112.64659 125.96948,114.70104 125.96948,114.70104 C 125.96948,114.70104 121.53898,114.70104 121.53898,114.70104 C 121.53898,114.70104 121.65827,116.66369 121.65827,116.66369 C 121.65827,116.66369 125.77318,116.66369 125.77318,116.66369 C 125.77318,116.66369 125.84428,118.71815 125.84428,118.71815 C 125.84428,118.71815 121.78312,118.71815 121.78312,118.71815 C 121.78312,118.71815 121.92986,121.1327 121.92986,121.1327 C 121.92986,121.1327 126.32443,121.1327 126.32443,121.1327 C 126.32443,121.1327 126.39016,123.18706 126.39016,123.18706 C 126.39016,123.18706 119.58551,123.18706 119.58551,123.18706 C 119.58551,123.18706 118.77228,112.64659 118.77228,112.64659 M 134.41518,121.26684 C 134.41518,121.26684 130.50506,121.26684 130.50506,121.26684 C 130.50506,121.26684 129.9048,123.18706 129.9048,123.18706 C 129.9048,123.18706 127.42275,123.18706 127.42275,123.18706 C 127.42275,123.18706 130.95207,112.64659 130.95207,112.64659 C 130.95207,112.64659 134.10161,112.64659 134.10161,112.64659 C 134.10161,112.64659 137.45981,123.18706 137.45981,123.18706 C 137.45981,123.18706 134.97784,123.18706 134.97784,123.18706 C 134.97784,123.18706 134.41518,121.26684 134.41518,121.26684 M 131.1275,119.31119 C 131.1275,119.31119 133.81802,119.31119 133.81802,119.31119 C 133.81802,119.31119 132.51014,115.11757 132.51014,115.11757 C 132.51014,115.11757 131.1275,119.31119 131.1275,119.31119 M 136.92873,112.64659 C 136.92873,112.64659 146.37062,112.64659 146.37062,112.64659 C 146.37062,112.64659 146.17761,114.70104 146.17761,114.70104 C 146.17761,114.70104 142.82428,114.70104 142.82428,114.70104 C 142.82428,114.70104 142.20583,123.18706 142.20583,123.18706 C 142.20583,123.18706 139.7366,123.18706 139.7366,123.18706 C 139.7366,123.18706 140.2161,114.70104 140.2161,114.70104 C 140.2161,114.70104 136.85599,114.70104 136.85599,114.70104 C 136.85599,114.70104 136.92873,112.64659 136.92873,112.64659"
     style="font-size:13.85837746px;font-style:normal;font-variant:normal;font-weight:bold;font-stretch:normal;line-height:100%;writing-mode:lr-tb;text-anchor:start;fill:#ffffff;fill-opacity:1;stroke:none;stroke-width:1px;stroke-linecap:butt;stroke-linejoin:miter;stroke-opacity:1;font-family:Bitstream Vera Sans"
     id="HEAT" />
  <path
     d="M 31.405964,177.64812 L 233.43646,173.60751 L 130.4009,248.3588 L 31.405964,177.64812 z "
     style="fill:url(#linearGradient3174);fill-opacity:1;fill-rule:evenodd;stroke:none;stroke-width:1px;stroke-linecap:butt;stroke-linejoin:miter;stroke-opacity:1"
     id="path1451" />
  <path
     d="M 233.08818,172.92955 L 232.66421,181.46487 L 130.6283,257.85398 L 130.48454,247.64995"
     style="color:#000000;fill:url(#linearGradient3171);fill-opacity:1;fill-rule:evenodd;stroke:none;stroke-width:1px;stroke-linecap:butt;stroke-linejoin:miter;marker:none;marker-start:none;marker-mid:none;marker-end:none;stroke-miterlimit:4;stroke-dasharray:none;stroke-dashoffset:0;stroke-opacity:1;visibility:visible;display:inline;overflow:visible"
     id="path6091" />
  <path
     d="M 31.766474,177.32209 L 33.195044,188.10843 L 130.6705,257.85273 L 130.48994,247.62625"
     style="color:#000000;fill:url(#linearGradient3168);fill-opacity:1;fill-rule:evenodd;stroke:none;stroke-width:1px;stroke-linecap:butt;stroke-linejoin:miter;marker:none;marker-start:none;marker-mid:none;marker-end:none;stroke-miterlimit:4;stroke-dasharray:none;stroke-dashoffset:0;stroke-opacity:1;visibility:visible;display:inline;overflow:visible"
     id="path6089" />
  <path
     d="M 113.76122,195.93654 C 113.27177,196.10339 112.76952,196.22934 112.25496,196.31428 C 111.73963,196.39919 111.21091,196.44166 110.66929,196.44166 C 109.05313,196.44166 107.84971,196.12612 107.0673,195.49517 C 106.29678,194.86105 106.05955,194.00255 106.34744,192.91949 C 106.63609,191.83338 107.31274,190.97491 108.369,190.34383 C 109.41495,189.70981 110.68922,189.39278 112.20003,189.39279 C 112.70639,189.39278 113.1836,189.43528 113.63238,189.52022 C 114.08199,189.60517 114.50615,189.73101 114.9053,189.89786 C 114.9053,189.89786 114.63888,191.30398 114.63888,191.30398 C 114.24021,191.0826 113.83785,190.92024 113.43107,190.81713 C 113.02521,190.71391 112.58667,190.66244 112.11503,190.66243 C 111.27022,190.66244 110.5597,190.86262 109.98078,191.2631 C 109.39807,191.66347 109.0202,192.21564 108.84999,192.91949 C 108.68046,193.62033 108.79759,194.17093 109.20411,194.57138 C 109.61437,194.97178 110.26198,195.17208 111.14411,195.17208 C 111.6366,195.17208 112.11604,195.12048 112.58205,195.01729 C 113.04713,194.91417 113.52927,194.75188 114.02763,194.53041 C 114.02763,194.53041 113.76122,195.93654 113.76122,195.93654 M 116.92433,189.51562 C 116.92433,189.51562 119.26629,189.51562 119.26629,189.51562 C 119.26629,189.51562 118.88543,192.10497 118.88543,192.10497 C 118.88543,192.10497 122.42905,192.10497 122.42905,192.10497 C 122.42905,192.10497 122.72151,189.51562 122.72151,189.51562 C 122.72151,189.51562 125.06355,189.51562 125.06355,189.51562 C 125.06355,189.51562 124.45326,196.30969 124.45326,196.30969 C 124.45326,196.30969 121.9541,196.30969 121.9541,196.30969 C 121.9541,196.30969 122.27943,193.42917 122.27943,193.42917 C 122.27943,193.42917 118.6907,193.42917 118.6907,193.42917 C 118.6907,193.42917 118.26697,196.30969 118.26697,196.30969 C 118.26697,196.30969 115.76775,196.30969 115.76775,196.30969 C 115.76775,196.30969 116.92433,189.51562 116.92433,189.51562 M 132.80392,195.07193 C 132.80392,195.07193 128.94093,195.07193 128.94093,195.07193 C 128.94093,195.07193 128.26373,196.30969 128.26373,196.30969 C 128.26373,196.30969 125.75159,196.30969 125.75159,196.30969 C 125.75159,196.30969 129.64411,189.51562 129.64411,189.51562 C 129.64411,189.51562 132.43632,189.51562 132.43632,189.51562 C 132.43632,189.51562 135.9106,196.30969 135.9106,196.30969 C 135.9106,196.30969 133.39848,196.30969 133.39848,196.30969 C 133.39848,196.30969 132.80392,195.07193 132.80392,195.07193 M 129.6112,193.81144 C 129.6112,193.81144 132.20481,193.81144 132.20481,193.81144 C 132.20481,193.81144 130.99432,191.10838 130.99432,191.10838 C 130.99432,191.10838 129.6112,193.81144 129.6112,193.81144 M 136.99862,189.51562 C 136.99862,189.51562 139.3406,189.51562 139.3406,189.51562 C 139.3406,189.51562 139.68864,196.30969 139.68864,196.30969 C 139.68864,196.30969 137.18948,196.30969 137.18948,196.30969 C 137.18948,196.30969 136.99862,189.51562 136.99862,189.51562 M 141.64615,189.51562 C 141.64615,189.51562 144.26188,189.51562 144.26188,189.51562 C 144.26188,189.51562 148.18229,194.17544 148.18229,194.17544 C 148.18229,194.17544 147.56505,189.51562 147.56505,189.51562 C 147.56505,189.51562 149.78541,189.51562 149.78541,189.51562 C 149.78541,189.51562 150.83445,196.30969 150.83445,196.30969 C 150.83445,196.30969 148.04309,196.30969 148.04309,196.30969 C 148.04309,196.30969 144.07124,191.64988 144.07124,191.64988 C 144.07124,191.64988 144.51831,196.30969 144.51831,196.30969 C 144.51831,196.30969 142.14893,196.30969 142.14893,196.30969 C 142.14893,196.30969 141.64615,189.51562 141.64615,189.51562 M 93.294514,201.84773 C 93.845044,201.84774 94.262514,201.77952 94.546724,201.64297 C 94.834794,201.50653 95.032714,201.28196 95.140914,200.96947 C 95.248034,200.66007 95.205694,200.43863 95.014174,200.30517 C 94.827704,200.17168 94.463754,200.10487 93.921714,200.10486 C 93.921714,200.10486 92.833094,200.10486 92.833094,200.10486 C 92.833094,200.10486 92.189044,201.84773 92.189044,201.84773 C 92.189044,201.84773 93.294514,201.84773 93.294514,201.84773 M 91.741694,203.05828 C 91.741694,203.05828 90.791464,205.62936 90.791464,205.62936 C 90.791464,205.62936 88.076644,205.62936 88.076644,205.62936 C 88.076644,205.62936 90.744674,198.83529 90.744674,198.83529 C 90.744674,198.83529 94.650924,198.83529 94.650924,198.83529 C 95.957354,198.8353 96.863434,198.98541 97.371474,199.28575 C 97.887254,199.5861 98.041504,200.06092 97.831694,200.71013 C 97.686614,201.15917 97.404214,201.52774 96.983214,201.81594 C 96.565134,202.10414 96.003874,202.31645 95.299604,202.45301 C 95.642464,202.5076 95.923504,202.63199 96.143134,202.82616 C 96.369244,203.01728 96.565884,203.30855 96.733954,203.69984 C 96.733954,203.69984 97.582054,205.62936 97.582054,205.62936 C 97.582054,205.62936 94.690894,205.62936 94.690894,205.62936 C 94.690894,205.62936 93.993864,203.94103 93.993864,203.94103 C 93.857754,203.60128 93.680654,203.36923 93.461894,203.2448 C 93.248324,203.12043 92.925654,203.05828 92.493404,203.05828 C 92.493404,203.05828 91.741694,203.05828 91.741694,203.05828 M 101.21439,198.83529 C 101.21439,198.83529 108.11668,198.83529 108.11668,198.83529 C 108.11668,198.83529 107.80477,200.15953 107.80477,200.15953 C 107.80477,200.15953 103.40802,200.15953 103.40802,200.15953 C 103.40802,200.15953 103.06037,201.4246 103.06037,201.4246 C 103.06037,201.4246 107.24155,201.4246 107.24155,201.4246 C 107.24155,201.4246 106.92659,202.74876 106.92659,202.74876 C 106.92659,202.74876 102.69638,202.74876 102.69638,202.74876 C 102.69638,202.74876 102.26854,204.30511 102.26854,204.30511 C 102.26854,204.30511 106.98158,204.30511 106.98158,204.30511 C 106.98158,204.30511 106.67137,205.62936 106.67137,205.62936 C 106.67137,205.62936 99.189814,205.62936 99.189814,205.62936 C 99.189814,205.62936 101.21439,198.83529 101.21439,198.83529 M 115.6479,204.3916 C 115.6479,204.3916 111.44763,204.3916 111.44763,204.3916 C 111.44763,204.3916 110.53564,205.62936 110.53564,205.62936 C 110.53564,205.62936 107.80675,205.62936 107.80675,205.62936 C 107.80675,205.62936 113.00604,198.83529 113.00604,198.83529 C 113.00604,198.83529 116.0553,198.83529 116.0553,198.83529 C 116.0553,198.83529 118.84231,205.62936 118.84231,205.62936 C 118.84231,205.62936 116.11335,205.62936 116.11335,205.62936 C 116.11335,205.62936 115.6479,204.3916 115.6479,204.3916 M 112.35667,203.1311 C 112.35667,203.1311 115.17935,203.1311 115.17935,203.1311 C 115.17935,203.1311 114.25131,200.42796 114.25131,200.42796 C 114.25131,200.42796 112.35667,203.1311 112.35667,203.1311 M 128.59816,205.2562 C 128.09277,205.42305 127.56721,205.54895 127.0218,205.63386 C 126.47554,205.71879 125.90804,205.76133 125.31975,205.76133 C 123.56427,205.76133 122.20577,205.44579 121.25246,204.81481 C 120.31046,204.1807 119.91071,203.32221 120.04488,202.23916 C 120.17935,201.15304 120.77473,200.29452 121.82284,199.66349 C 122.86023,199.02948 124.19986,198.71241 125.85001,198.7124 C 126.40294,198.71241 126.93107,198.75493 127.43481,198.83984 C 127.93942,198.92475 128.42267,199.05068 128.88513,199.21752 C 128.88513,199.21752 128.81823,200.62364 128.81823,200.62364 C 128.34818,200.40224 127.88343,200.2399 127.42317,200.1368 C 126.96376,200.03358 126.4771,199.98204 125.96259,199.98204 C 125.04075,199.98204 124.29822,200.18229 123.7321,200.58274 C 123.1621,200.98314 122.84059,201.53527 122.77029,202.23916 C 122.70021,202.93993 122.91748,203.49059 123.42497,203.89096 C 123.93619,204.29145 124.67271,204.49166 125.63174,204.49166 C 126.16708,204.49166 126.68021,204.44015 127.17037,204.33693 C 127.65964,204.23383 128.15813,204.07147 128.66494,203.85007 C 128.66494,203.85007 128.59816,205.2562 128.59816,205.2562 M 129.84657,198.83529 C 129.84657,198.83529 138.98764,198.83529 138.98764,198.83529 C 138.98764,198.83529 139.04555,200.15953 139.04555,200.15953 C 139.04555,200.15953 135.71773,200.15953 135.71773,200.15953 C 135.71773,200.15953 135.79415,205.62936 135.79415,205.62936 C 135.79415,205.62936 133.07932,205.62936 133.07932,205.62936 C 133.07932,205.62936 133.12943,200.15953 133.12943,200.15953 C 133.12943,200.15953 129.79491,200.15953 129.79491,200.15953 C 129.79491,200.15953 129.84657,198.83529 129.84657,198.83529 M 140.30296,198.83529 C 140.30296,198.83529 142.86061,198.83529 142.86061,198.83529 C 142.86061,198.83529 143.39558,205.62936 143.39558,205.62936 C 143.39558,205.62936 140.68078,205.62936 140.68078,205.62936 C 140.68078,205.62936 140.30296,198.83529 140.30296,198.83529 M 150.07249,199.98204 C 149.28492,199.98204 148.69975,200.17922 148.31471,200.57358 C 147.92654,200.96801 147.77432,201.52314 147.86051,202.23916 C 147.9462,202.95206 148.23663,203.5057 148.73414,203.90015 C 149.23468,204.29452 149.89579,204.49166 150.7151,204.49166 C 151.53913,204.49166 152.14639,204.29452 152.5345,203.90015 C 152.91948,203.5057 153.05215,202.95206 152.93464,202.23916 C 152.81663,201.52314 152.50621,200.96801 152.00568,200.57358 C 151.50811,200.17922 150.86453,199.98204 150.07249,199.98204 M 149.89157,198.7124 C 151.48415,198.71241 152.78422,199.02488 153.79955,199.64982 C 154.82496,200.27477 155.44547,201.13785 155.65318,202.23916 C 155.86036,203.33732 155.54931,204.19896 154.71227,204.82391 C 153.86495,205.44886 152.59037,205.76133 150.89607,205.76133 C 149.20654,205.76133 147.84284,205.44886 146.81275,204.82391 C 145.79753,204.19896 145.24085,203.33732 145.13508,202.23916 C 145.0289,201.13785 145.4034,200.27477 146.25074,199.64982 C 147.09238,199.02488 148.30339,198.71241 149.89157,198.7124 M 156.93752,198.83529 C 156.93752,198.83529 159.79411,198.83529 159.79411,198.83529 C 159.79411,198.83529 164.6342,203.49506 164.6342,203.49506 C 164.6342,203.49506 163.40141,198.83529 163.40141,198.83529 C 163.40141,198.83529 165.82621,198.83529 165.82621,198.83529 C 165.82621,198.83529 167.77266,205.62936 167.77266,205.62936 C 167.77266,205.62936 164.74051,205.62936 164.74051,205.62936 C 164.74051,205.62936 159.84898,200.96947 159.84898,200.96947 C 159.84898,200.96947 160.91152,205.62936 160.91152,205.62936 C 160.91152,205.62936 158.33779,205.62936 158.33779,205.62936 C 158.33779,205.62936 156.93752,198.83529 156.93752,198.83529"
     style="font-size:12.5853796px;font-style:normal;font-variant:normal;font-weight:bold;font-stretch:normal;line-height:100%;writing-mode:lr-tb;text-anchor:middle;fill:#ffffff;fill-opacity:1;stroke:none;stroke-width:1px;stroke-linecap:butt;stroke-linejoin:miter;stroke-opacity:1;font-family:Bitstream Vera Sans"
     id="CHAIN_REACTION" />
  <path
     d="M 4.6913658,149.48703 L 74.336294,64.23555 L 78.228084,212.86517 L 4.6913658,149.48703 z "
     style="fill:url(#linearGradient3149);fill-opacity:1;fill-rule:evenodd;stroke:none;stroke-width:1px;stroke-linecap:butt;stroke-linejoin:miter;stroke-opacity:1"
     id="path1445" />
  <path
     d="M 73.65398,64.13524 L 78.70677,68.5454 L 85.06199,204.93008 L 77.54092,212.83372"
     style="color:#000000;fill:url(#linearGradient3146);fill-opacity:1;fill-rule:evenodd;stroke:none;stroke-width:1px;stroke-linecap:butt;stroke-linejoin:miter;marker:none;marker-start:none;marker-mid:none;marker-end:none;stroke-miterlimit:4;stroke-dasharray:none;stroke-dashoffset:0;stroke-opacity:1;visibility:visible;display:inline;overflow:visible"
     id="path7625" />
  <path
     d="M 34.299104,127.4354 C 33.829274,127.08659 33.324634,127.0464 32.785484,127.31398 C 32.246664,127.58062 31.723184,128.13058 31.214704,128.96463 C 30.708354,129.79531 30.443784,130.53879 30.420744,131.19588 C 30.397354,131.854 30.618614,132.3631 31.084774,132.72238 C 31.553594,133.08367 32.057304,133.13125 32.596204,132.86438 C 33.135454,132.59651 33.660234,132.04161 34.170214,131.20052 C 34.682314,130.35595 34.950174,129.60434 34.973504,128.94643 C 34.996474,128.2896 34.771564,127.78615 34.299104,127.4354 M 35.203804,125.94755 C 36.166894,126.65494 36.697714,127.57784 36.795454,128.7188 C 36.891954,129.86326 36.544444,131.09053 35.753734,132.39828 C 34.965104,133.70258 34.076044,134.51826 33.087444,134.84256 C 32.100034,135.16354 31.131054,134.95237 30.179594,134.21146 C 29.230804,133.47256 28.707434,132.52828 28.608494,131.38117 C 28.511004,130.23954 28.850314,129.03448 29.627324,127.76357 C 30.441864,126.51623 31.289044,125.69348 32.276244,125.37315 C 33.267264,125.05148 34.243424,125.24213 35.203804,125.94755 M 39.998114,135.47213 C 39.998114,135.47213 39.537014,141.26044 39.537014,141.26044 C 39.537014,141.26044 37.946774,140.02408 37.946774,140.02408 C 37.946774,140.02408 38.242624,136.15328 38.242624,136.15328 C 38.242624,136.15328 35.190694,137.88102 35.190694,137.88102 C 35.190694,137.88102 33.592634,136.63822 33.592634,136.63822 C 33.592634,136.63822 38.150994,134.07629 38.150994,134.07629 C 38.150994,134.07629 38.554634,128.61935 38.554634,128.61935 C 38.554634,128.61935 40.167554,129.80493 40.167554,129.80493 C 40.167554,129.80493 39.895814,133.40336 39.895814,133.40336 C 39.895814,133.40336 42.787604,131.73054 42.787604,131.73054 C 42.787604,131.73054 44.408644,132.92177 44.408644,132.92177 C 44.408644,132.92177 39.998114,135.47213 39.998114,135.47213 M 44.577174,133.04556 C 44.577174,133.04556 46.266464,134.28677 46.266464,134.28677 C 46.266464,134.28677 45.853514,138.27608 45.853514,138.27608 C 45.853514,138.27608 48.995094,136.29134 48.995094,136.29134 C 48.995094,136.29134 50.688514,137.53518 50.688514,137.53518 C 50.688514,137.53518 45.513474,140.72462 45.513474,140.72462 C 45.513474,140.72462 43.407624,144.2692 43.407624,144.2692 C 43.407624,144.2692 41.880764,143.0824 41.880764,143.0824 C 41.880764,143.0824 43.978984,139.5597 43.978984,139.5597 C 43.978984,139.5597 44.577174,133.04556 44.577174,133.04556 M 52.036164,150.03278 C 51.495914,150.00931 50.981114,149.90602 50.491774,149.72315 C 50.002544,149.53985 49.539854,149.27841 49.103704,148.93916 C 48.117644,148.17222 47.570844,147.1675 47.462294,145.92776 C 47.354724,144.68788 47.701244,143.3918 48.502804,142.03684 C 49.313294,140.66695 50.247064,139.80961 51.305114,139.46193 C 52.364454,139.11068 53.411034,139.31253 54.443964,140.07019 C 54.840244,140.36667 55.192254,140.69638 55.492664,141.07144 C 55.795664,141.44881 56.046444,141.86305 56.245064,142.31421 C 56.245064,142.31421 55.191284,144.11094 55.191284,144.11094 C 55.019194,143.58755 54.807294,143.13549 54.555754,142.75443 C 54.306744,142.37573 54.016664,142.06375 53.685554,141.81826 C 53.071414,141.36292 52.451874,141.25859 51.827234,141.50428 C 51.207944,141.74685 50.629204,142.324 50.090644,143.23668 C 49.556534,144.14185 49.303344,144.96237 49.330764,145.69923 C 49.357704,146.43735 49.663794,147.03224 50.249314,147.48293 C 50.408254,147.60525 50.563224,147.70498 50.714214,147.78197 C 50.870134,147.85715 51.020534,147.90563 51.165464,147.92743 C 51.165464,147.92743 52.151904,146.24843 52.151904,146.24843 C 52.151904,146.24843 51.215614,145.53643 51.215614,145.53643 C 51.215614,145.53643 52.091234,144.04846 52.091234,144.04846 C 52.091234,144.04846 54.486604,145.85233 54.486604,145.85233 C 54.486604,145.85233 52.036164,150.03278 52.036164,150.03278 M 58.108704,142.98375 C 58.108704,142.98375 62.278614,146.04446 62.278614,146.04446 C 62.278614,146.04446 61.273224,147.77402 61.273224,147.77402 C 61.273224,147.77402 58.654384,145.83036 58.654384,145.83036 C 58.654384,145.83036 57.699494,147.46653 57.699494,147.46653 C 57.699494,147.46653 60.156814,149.30971 60.156814,149.30971 C 60.156814,149.30971 59.151554,151.03881 59.151554,151.03881 C 59.151554,151.03881 56.699874,149.17947 56.699874,149.17947 C 56.699874,149.17947 55.524904,151.19304 55.524904,151.19304 C 55.524904,151.19304 58.212534,153.2576 58.212534,153.2576 C 58.212534,153.2576 57.206504,154.98896 57.206504,154.98896 C 57.206504,154.98896 52.997954,151.72058 52.997954,151.72058 C 52.997954,151.72058 58.108704,142.98375 58.108704,142.98375 M 63.727504,147.10777 C 63.727504,147.10777 65.453404,148.37414 65.453404,148.37414 C 65.453404,148.37414 64.051684,156.1838 64.051684,156.1838 C 64.051684,156.1838 67.632844,149.97316 67.632844,149.97316 C 67.632844,149.97316 69.097924,151.04794 69.097924,151.04794 C 69.097924,151.04794 63.859014,160.15347 63.859014,160.15347 C 63.859014,160.15347 62.153204,158.82939 62.153204,158.82939 C 62.153204,158.82939 63.561394,151.00109 63.561394,151.00109 C 63.561394,151.00109 59.999134,157.15722 59.999134,157.15722 C 59.999134,157.15722 58.551234,156.03309 58.551234,156.03309 C 58.551234,156.03309 63.727504,147.10777 63.727504,147.10777"
     style="font-size:11.56772137px;font-style:normal;font-variant:normal;font-weight:bold;font-stretch:normal;line-height:100%;writing-mode:lr-tb;text-anchor:start;fill:#ffffff;fill-opacity:1;stroke:none;stroke-width:1px;stroke-linecap:butt;stroke-linejoin:miter;stroke-opacity:1;font-family:Bitstream Vera Sans"
     id="OXYGEN" />
  <path
     d="M 176.85018,210.11941 L 170.21794,204.00112 L 185.73006,59.77643 L 191.73536,56.91301"
     style="color:#000000;fill:url(#linearGradient3159);fill-opacity:1;fill-rule:evenodd;stroke:none;stroke-width:1px;stroke-linecap:butt;stroke-linejoin:miter;marker:none;marker-start:none;marker-mid:none;marker-end:none;stroke-miterlimit:4;stroke-dasharray:none;stroke-dashoffset:0;stroke-opacity:1;visibility:visible;display:inline;overflow:visible"
     id="path6097" />
  <path
     d="M 190.75531,57.0689 L 176.14082,210.13085 L 266.73982,154.31284 L 190.75531,57.0689 z "
     style="fill:url(#linearGradient3156);fill-opacity:1;fill-rule:evenodd;stroke:none;stroke-width:1px;stroke-linecap:butt;stroke-linejoin:miter;stroke-opacity:1"
     id="path1447" />
  <path
     d="M 196.69466,143.56159 C 196.69466,143.56159 202.72681,140.0502 202.72681,140.0502 C 202.72681,140.0502 203.22484,141.91687 203.22484,141.91687 C 203.22484,141.91687 199.43066,144.15697 199.43066,144.15697 C 199.43066,144.15697 199.90912,145.96888 199.90912,145.96888 C 199.90912,145.96888 203.47451,143.8355 203.47451,143.8355 C 203.47451,143.8355 203.9727,145.70399 203.9727,145.70399 C 203.9727,145.70399 200.40995,147.86547 200.40995,147.86547 C 200.40995,147.86547 201.49934,151.99105 201.49934,151.99105 C 201.49934,151.99105 199.27257,153.38245 199.27257,153.38245 C 199.27257,153.38245 196.69466,143.56159 196.69466,143.56159 M 204.82268,138.83017 C 204.82268,138.83017 207.0579,137.52903 207.0579,137.52903 C 207.0579,137.52903 208.5798,143.16543 208.5798,143.16543 C 208.78952,143.94213 209.05553,144.42735 209.37775,144.6206 C 209.70265,144.8066 210.12937,144.73612 210.65797,144.40966 C 211.19039,144.08088 211.52779,143.68087 211.67007,143.21013 C 211.81519,142.7336 211.78337,142.11226 211.57459,141.34553 C 211.57459,141.34553 210.05948,135.78183 210.05948,135.78183 C 210.05948,135.78183 212.29468,134.48067 212.29468,134.48067 C 212.29468,134.48067 213.80473,139.99029 213.80473,139.99029 C 214.1613,141.29125 214.12003,142.44945 213.6812,143.46742 C 213.24267,144.48885 212.39506,145.39402 211.13813,146.18049 C 209.88506,146.96452 208.86407,147.22193 208.07485,146.95026 C 207.28539,146.67503 206.71023,145.86435 206.34966,144.52068 C 206.34966,144.52068 204.82268,138.83017 204.82268,138.83017 M 214.48342,133.2066 C 214.48342,133.2066 220.5156,129.6952 220.5156,129.6952 C 220.5156,129.6952 221.00049,131.42186 221.00049,131.42186 C 221.00049,131.42186 217.20636,133.66195 217.20636,133.66195 C 217.20636,133.66195 217.67231,135.34008 217.67231,135.34008 C 217.67231,135.34008 221.2377,133.20673 221.2377,133.20673 C 221.2377,133.20673 221.72281,134.93519 221.72281,134.93519 C 221.72281,134.93519 218.16004,137.09666 218.16004,137.09666 C 218.16004,137.09666 218.73324,139.16111 218.73324,139.16111 C 218.73324,139.16111 222.646,136.74893 222.646,136.74893 C 222.646,136.74893 223.13081,138.47464 223.13081,138.47464 C 223.13081,138.47464 216.99419,142.30908 216.99419,142.30908 C 216.99419,142.30908 214.48342,133.2066 214.48342,133.2066 M 222.61149,128.47518 C 222.61149,128.47518 224.84669,127.17403 224.84669,127.17403 C 224.84669,127.17403 226.83659,134.16546 226.83659,134.16546 C 226.83659,134.16546 230.74935,131.75327 230.74935,131.75327 C 230.74935,131.75327 231.22821,133.41502 231.22821,133.41502 C 231.22821,133.41502 225.09156,137.24949 225.09156,137.24949 C 225.09156,137.24949 222.61149,128.47518 222.61149,128.47518"
     style="font-size:12px;font-style:normal;font-variant:normal;font-weight:bold;font-stretch:normal;text-align:start;line-height:125%;writing-mode:lr-tb;text-anchor:start;fill:#ffffff;fill-opacity:1;stroke:none;stroke-width:1px;stroke-linecap:butt;stroke-linejoin:miter;stroke-opacity:1;font-family:Bitstream Vera Sans"
     id="FUEL" />
</svg>
